<svg xmlns="http://www.w3.org/2000/svg" xmlns:xlink="http://www.w3.org/1999/xlink" viewBox="0,0,256,256" width="24px" height="24px"><defs><clipPath id="clip-1"><path d="M0,256v-256h256v256zM216.40575,185.01791l-45.14213,-25.33754h-0.00582c-5.64931,-3.16501 -12.36914,-3.09519 -17.95445,0.16872c-5.56786,3.26392 -9.02959,9.32049 -9.02959,15.81342v50.67508c0,6.49293 3.46173,12.5495 9.03541,15.8076c2.8392,1.66396 5.97512,2.50175 9.11686,2.50175c3.0312,0 6.06239,-0.7738 8.84341,-2.33303l45.13631,-25.33754c5.74822,-3.22901 9.32049,-9.34958 9.32049,-15.97632c0,-6.62674 -3.57227,-12.74731 -9.32049,-15.98214z" id="overlayBgMask" fill="none" stroke="none" stroke-linejoin="miter"></path></clipPath></defs><g fill-opacity="0" fill="#dddddd" fill-rule="nonzero" stroke="none" stroke-width="1" stroke-linecap="butt" stroke-linejoin="miter" stroke-miterlimit="10" stroke-dasharray="" stroke-dashoffset="0" font-family="none" font-weight="none" font-size="none" text-anchor="none" style="mix-blend-mode: normal"><path d="M0,256v-256h256v256z" id="bgRectangle"></path></g><g clip-path="url(#clip-1)" fill="none" fill-rule="nonzero" stroke="none" stroke-width="1" stroke-linecap="butt" stroke-linejoin="none" stroke-miterlimit="10" stroke-dasharray="" stroke-dashoffset="0" font-family="none" font-weight="none" font-size="none" text-anchor="none" style="mix-blend-mode: normal"><path transform="scale(10.66667,10.66667)" d="M16.5,3c1.381,0 2.5,1.119 2.5,2.5c0,1.381 -1.119,2.5 -2.5,2.5h-3.5v10c0,2.20914 -1.79086,4 -4,4c-2.20914,0 -4,-1.79086 -4,-4c0,-2.20914 1.79086,-4 4,-4c0.70261,0.00156 1.39242,0.18815 2,0.54102v-9.54102c0,-1.105 0.895,-2 2,-2z" id="strokeMainSVG" fill="#ffffff" stroke="#ffffff" stroke-linejoin="round"></path><g transform="scale(10.66667,10.66667)" fill="#45de33" stroke="none" stroke-linejoin="miter"><path d="M13,3c-1.105,0 -2,0.895 -2,2v3v6.54102c-0.60758,-0.35286 -1.29739,-0.53946 -2,-0.54102c-2.20914,0 -4,1.79086 -4,4c0,2.20914 1.79086,4 4,4c2.20914,0 4,-1.79086 4,-4v-10h3.5c1.381,0 2.5,-1.119 2.5,-2.5c0,-1.381 -1.119,-2.5 -2.5,-2.5z"></path></g></g><g fill="none" fill-rule="nonzero" stroke="none" stroke-width="none" stroke-linecap="butt" stroke-linejoin="none" stroke-miterlimit="10" stroke-dasharray="" stroke-dashoffset="0" font-family="none" font-weight="none" font-size="none" text-anchor="none" style="mix-blend-mode: normal"><path d="M165.56631,169.83279l45.14794,25.33754c4.50316,2.52503 4.50316,9.1285 0,11.65934l-45.14794,25.33754c-4.34025,2.43776 -9.65794,-0.76798 -9.65794,-5.82967v-50.67508c0,-5.06169 5.31768,-8.26743 9.65794,-5.82967z" id="strokeOverlay" fill="#ffffff" stroke="#ffffff" stroke-width="10.66667" stroke-linejoin="round"></path><g transform="translate(155.90838,169.00081) scale(5.81803,5.81803)" id="overlay" fill="#45de33" stroke="none" stroke-width="1" stroke-linejoin="miter"><path d="M1.66,0.143l7.76,4.355c0.774,0.434 0.774,1.569 0,2.004l-7.76,4.355c-0.746,0.419 -1.66,-0.132 -1.66,-1.002v-8.71c0,-0.87 0.914,-1.421 1.66,-1.002z"></path></g></g></svg>