<svg xmlns="http://www.w3.org/2000/svg" xmlns:xlink="http://www.w3.org/1999/xlink" viewBox="0,0,256,256" width="24px" height="24px"><defs><clipPath id="clip-1"><path d="M0,256v-256h256v256zM160.1104,245.8h49.7792c10.976,0 19.9104,-8.9344 19.9104,-19.9168v-49.7728c0,-10.976 -8.9344,-19.9104 -19.9168,-19.9104h-49.7728c-10.976,0 -19.9104,8.9344 -19.9104,19.9104v49.7792c0,10.976 8.9344,19.9104 19.9104,19.9104z" id="overlayBgMask" fill="none" stroke="none" stroke-linejoin="miter"></path></clipPath></defs><g fill-opacity="0" fill="#dddddd" fill-rule="nonzero" stroke="none" stroke-width="1" stroke-linecap="butt" stroke-linejoin="miter" stroke-miterlimit="10" stroke-dasharray="" stroke-dashoffset="0" font-family="none" font-weight="none" font-size="none" text-anchor="none" style="mix-blend-mode: normal"><path d="M0,256v-256h256v256z" id="bgRectangle"></path></g><g clip-path="url(#clip-1)" fill="none" fill-rule="nonzero" stroke="none" stroke-width="1" stroke-linecap="butt" stroke-linejoin="none" stroke-miterlimit="10" stroke-dasharray="" stroke-dashoffset="0" font-family="none" font-weight="none" font-size="none" text-anchor="none" style="mix-blend-mode: normal"><path transform="scale(10.66667,10.66667)" d="M16.5,3c1.381,0 2.5,1.119 2.5,2.5c0,1.381 -1.119,2.5 -2.5,2.5h-3.5v10c0,2.20914 -1.79086,4 -4,4c-2.20914,0 -4,-1.79086 -4,-4c0,-2.20914 1.79086,-4 4,-4c0.70261,0.00156 1.39242,0.18815 2,0.54102v-9.54102c0,-1.105 0.895,-2 2,-2z" id="strokeMainSVG" fill="#ffffff" stroke="#ffffff" stroke-linejoin="round"></path><g transform="scale(10.66667,10.66667)" fill="#45de33" stroke="none" stroke-linejoin="miter"><path d="M13,3c-1.105,0 -2,0.895 -2,2v3v6.54102c-0.60758,-0.35286 -1.29739,-0.53946 -2,-0.54102c-2.20914,0 -4,1.79086 -4,4c0,2.20914 1.79086,4 4,4c2.20914,0 4,-1.79086 4,-4v-10h3.5c1.381,0 2.5,-1.119 2.5,-2.5c0,-1.381 -1.119,-2.5 -2.5,-2.5z"></path></g></g><g fill="none" fill-rule="nonzero" stroke="none" stroke-width="none" stroke-linecap="butt" stroke-linejoin="none" stroke-miterlimit="10" stroke-dasharray="" stroke-dashoffset="0" font-family="none" font-weight="none" font-size="none" text-anchor="none" style="mix-blend-mode: normal"><path d="M160.1104,169h49.7792c3.9296,0 7.1104,3.1808 7.1104,7.1104v49.7792c0,3.9296 -3.1808,7.1104 -7.1104,7.1104h-49.7792c-3.9296,0 -7.1104,-3.1808 -7.1104,-7.1104v-49.7792c0,-3.9296 3.1808,-7.1104 7.1104,-7.1104z" id="strokeOverlay" fill="#ffffff" stroke="#ffffff" stroke-width="10.66667" stroke-linejoin="round"></path><g transform="translate(153,169) scale(6.4,6.4)" id="overlay" fill="#45de33" stroke="none" stroke-width="1" stroke-linejoin="miter"><path d="M1.111,0h7.778c0.614,0 1.111,0.497 1.111,1.111v7.778c0,0.614 -0.497,1.111 -1.111,1.111h-7.778c-0.614,0 -1.111,-0.497 -1.111,-1.111v-7.778c0,-0.614 0.497,-1.111 1.111,-1.111z"></path></g></g></svg>